<?xml version="1.0" standalone="no"?>
<!DOCTYPE svg PUBLIC "-//W3C//DTD SVG 20010904//EN"
 "http://www.w3.org/TR/2001/REC-SVG-20010904/DTD/svg10.dtd">
<svg version="1.0" xmlns="http://www.w3.org/2000/svg"
 width="50.000000pt" height="50.000000pt" viewBox="0 0 50.000000 50.000000"
 preserveAspectRatio="xMidYMid meet">

<g transform="translate(0.000000,50.000000) scale(0.100000,-0.100000)"
fill="currentColor" stroke="currentColor">
<path d="M202 455 c-17 -8 -37 -26 -42 -40 -14 -36 -6 -134 13 -172 29 -55 23
-70 -43 -103 -58 -29 -80 -53 -80 -84 0 -14 25 -16 200 -16 175 0 200 2 200
16 0 31 -22 55 -80 84 -67 34 -72 47 -42 108 18 37 27 129 16 164 -6 19 -72
58 -96 58 -7 -1 -28 -7 -46 -15z m88 -20 c16 -8 31 -23 34 -32 10 -32 0 -117
-17 -150 -9 -18 -17 -39 -17 -47 0 -23 -36 -39 -60 -26 -11 6 -20 17 -20 24 0
7 -8 28 -17 47 -20 39 -27 133 -12 161 19 36 65 46 109 23z m-60 -284 c0 -14
-18 -23 -30 -16 -6 4 -8 11 -5 16 8 12 35 12 35 0z m71 -6 c-1 -15 -24 -12
-29 3 -3 9 2 13 12 10 10 -1 17 -7 17 -13z m-77 -36 c19 16 20 12 6 -23 -9
-25 -13 -26 -85 -26 -74 0 -75 1 -65 21 7 11 30 29 52 39 41 18 41 18 58 -3
15 -18 20 -19 34 -8z m190 -22 l18 -22 -72 -3 c-78 -3 -84 -1 -95 38 -7 23 -7
24 10 10 16 -13 19 -12 34 7 15 19 18 20 51 7 19 -8 43 -24 54 -37z"/>
</g>
</svg>
